<?xml version="1.0" standalone="no"?>
<!DOCTYPE svg PUBLIC "-//W3C//DTD SVG 20010904//EN"
 "http://www.w3.org/TR/2001/REC-SVG-20010904/DTD/svg10.dtd">
<svg version="1.0" xmlns="http://www.w3.org/2000/svg"
 width="262.000000pt" height="262.000000pt" viewBox="0 0 262.000000 262.000000"
 preserveAspectRatio="xMidYMid meet">
<metadata>
Created by potrace 1.14, written by Peter Selinger 2001-2017
</metadata>
<g transform="translate(0.000000,262.000000) scale(0.100000,-0.100000)"
fill="#000000" stroke="none">
<path d="M715 2377 c-103 -27 -197 -102 -220 -177 l-8 -25 23 20 23 20 -7 -20
c-13 -35 -19 -202 -7 -185 6 8 11 26 12 40 1 28 3 23 19 -37 10 -40 12 -42 33
-30 29 16 52 48 49 68 -2 10 9 21 27 29 l30 12 -27 52 c-15 28 -28 54 -30 59
-2 4 3 7 12 7 9 0 16 5 16 11 0 5 4 7 10 4 5 -3 20 -1 32 6 26 14 167 14 181
0 5 -5 15 -7 22 -5 6 3 18 -2 25 -11 7 -8 18 -15 25 -15 23 0 69 -29 82 -52
11 -21 12 -22 13 -3 0 17 2 17 10 5 5 -8 9 -24 9 -35 0 -11 -3 -14 -6 -8 -3
10 -8 9 -20 -2 -11 -11 -42 -15 -131 -16 -134 -1 -119 -12 34 -24 54 -5 108
-9 118 -9 10 -1 22 -10 26 -20 6 -19 7 -19 14 -1 6 16 9 17 16 5 14 -22 13 50
-1 106 -15 58 -85 137 -153 171 -28 14 -45 28 -38 31 7 2 36 -8 64 -22 61 -32
69 -33 34 -5 -69 55 -215 81 -311 56z m-93 -244 c28 -33 29 -40 3 -35 -29 5
-49 27 -40 42 9 15 20 12 37 -7z"/>
<path d="M1825 2250 c-3 -5 -1 -10 4 -10 6 0 11 5 11 10 0 6 -2 10 -4 10 -3 0
-8 -4 -11 -10z"/>
<path d="M2067 2238 c-8 -13 -65 -119 -126 -237 -117 -224 -117 -223 -62 -237
18 -5 29 0 47 22 13 16 26 38 30 49 4 11 22 43 41 70 l35 50 -36 -38 c-25 -25
-41 -35 -50 -30 -15 9 36 100 127 226 47 66 49 67 94 67 l46 0 -23 25 c-13 14
-30 25 -37 25 -8 0 -27 7 -43 15 -28 14 -30 14 -43 -7z m-152 -407 c-6 -5 -25
10 -25 20 0 5 6 4 14 -3 8 -7 12 -15 11 -17z"/>
<path d="M2207 2157 c-3 -9 4 -19 21 -27 22 -10 24 -13 11 -21 -9 -5 -24 -20
-34 -35 l-17 -27 22 16 c12 8 29 25 37 37 14 20 14 24 -9 47 -20 20 -26 22
-31 10z"/>
<path d="M2181 2083 c-10 -26 -10 -27 4 -9 8 11 15 23 15 28 0 15 -7 8 -19
-19z"/>
<path d="M393 2065 c-18 -19 -33 -39 -33 -45 0 -5 18 -10 40 -10 43 0 45 4 31
62 l-6 27 -32 -34z"/>
<path d="M2307 2032 c-18 -20 -87 -166 -106 -224 -14 -43 -29 -57 -41 -37 -6
9 -12 6 -21 -15 -11 -23 -10 -29 2 -37 13 -8 6 -13 -13 -10 -5 0 -8 -3 -8 -8
0 -5 -3 -16 -6 -25 -4 -11 7 -22 40 -38 l46 -22 -41 -75 c-39 -71 -40 -75 -23
-88 27 -20 36 -13 69 50 27 51 33 57 63 57 17 0 32 -5 32 -11 0 -6 9 -9 20 -6
13 3 24 -3 35 -20 15 -22 15 -27 -4 -66 -24 -51 -31 -92 -14 -92 13 0 65 82
114 177 l29 57 -32 18 -33 17 25 6 c22 5 23 7 6 13 -10 4 -24 2 -32 -4 -14
-12 -35 -7 -104 24 -25 11 -47 21 -50 21 -45 9 -34 64 24 126 24 26 56 70 69
97 l26 50 -28 41 c-26 40 -28 41 -44 24z m50 -428 c-9 -9 -28 6 -21 18 4 6 10
6 17 -1 6 -6 8 -13 4 -17z m-13 -13 c3 -4 3 -11 0 -14 -8 -8 -34 3 -34 14 0
11 27 12 34 0z"/>
<path d="M2155 2013 c-9 -36 0 -39 23 -6 19 27 19 29 2 30 -12 1 -20 -7 -25
-24z"/>
<path d="M2061 1999 c-13 -17 -21 -33 -18 -35 6 -6 47 45 47 57 0 14 -5 11
-29 -22z"/>
<path d="M1147 1978 c-56 -145 -256 -250 -423 -220 -74 13 -162 54 -199 93
-31 32 -74 38 -111 16 -46 -27 -103 -75 -96 -81 3 -4 0 -11 -7 -15 -7 -5 -17
-24 -21 -42 -8 -32 -8 -32 -9 -6 -3 81 77 167 156 167 24 0 43 2 43 5 0 17
-26 55 -38 55 -10 0 -12 4 -4 13 14 17 -8 35 -38 30 -14 -2 -28 -10 -32 -18
-6 -10 -16 -11 -38 -5 -18 5 -30 5 -30 -1 0 -5 -5 -9 -11 -9 -5 0 -7 6 -4 13
4 6 -2 2 -13 -10 -21 -24 -38 -31 -26 -11 4 7 3 8 -4 4 -17 -10 -15 -36 2 -36
8 0 17 -4 20 -8 2 -4 -4 -8 -15 -8 -10 0 -19 4 -19 8 0 22 -20 3 -34 -33 -17
-41 -15 -80 5 -121 5 -10 13 -26 18 -36 5 -10 12 -41 16 -70 4 -29 10 -52 14
-52 4 0 15 17 24 38 11 26 29 44 59 59 48 25 128 39 128 23 0 -5 -8 -10 -17
-11 -56 -2 -95 -18 -89 -36 4 -11 2 -13 -9 -9 -8 3 -15 1 -15 -5 0 -6 -5 -7
-10 -4 -26 16 -64 -55 -61 -114 2 -71 77 -193 105 -173 6 5 23 13 37 19 24 10
26 10 22 -8 -3 -10 -9 -17 -13 -14 -4 3 -13 -2 -20 -10 -7 -8 -16 -12 -21 -9
-5 3 -9 1 -9 -5 0 -5 5 -13 11 -17 8 -5 8 -8 0 -14 -8 -4 1 -17 26 -36 21 -15
65 -54 97 -86 38 -37 71 -60 91 -64 18 -3 44 -17 58 -30 15 -14 48 -28 79 -34
29 -6 63 -13 74 -15 32 -7 37 -32 11 -46 -20 -11 -21 -11 -8 4 8 10 9 17 3 17
-6 0 -13 -9 -17 -19 -3 -12 -19 -22 -38 -27 -18 -3 -43 -12 -57 -19 -14 -7
-68 -15 -120 -18 -52 -3 -108 -10 -123 -16 -35 -14 -30 -15 -58 10 -53 47
-107 77 -164 93 -33 10 -79 23 -103 30 l-42 14 6 -37 c4 -20 15 -58 24 -86 15
-46 21 -51 66 -67 57 -21 174 -24 205 -5 17 9 23 9 26 0 7 -19 70 -27 103 -13
45 19 360 33 376 17 4 -4 -1 -16 -11 -27 -17 -19 -17 -22 -2 -37 15 -15 14
-19 -12 -52 -48 -62 -54 -77 -37 -110 9 -16 39 -50 69 -75 46 -41 53 -51 49
-77 -4 -25 6 -39 74 -110 l79 -80 -170 5 c-166 5 -167 5 -45 -4 69 -5 167 -12
219 -16 85 -5 96 -9 118 -33 14 -14 34 -36 45 -47 19 -20 19 -23 4 -46 -9 -14
-49 -40 -89 -59 l-72 -33 38 -9 c28 -7 50 -5 85 7 43 15 68 21 128 29 11 2 25
6 31 10 6 4 27 -4 47 -18 47 -32 86 -32 124 0 31 26 52 32 52 15 0 -13 37 -11
80 4 30 11 36 18 40 52 9 61 3 75 -27 63 -33 -12 -35 -9 -12 20 11 14 19 18
19 10 0 -12 2 -12 9 -1 4 8 11 13 15 13 32 -4 86 1 86 8 0 6 -16 7 -37 4 l-36
-6 21 21 c21 21 21 52 0 52 -6 0 -7 -8 -3 -17 5 -14 4 -15 -6 -6 -19 19 8 98
28 81 7 -6 16 -8 20 -4 3 3 1 6 -6 6 -30 0 2 17 34 18 26 1 35 -3 35 -15 0
-14 3 -14 22 3 12 10 18 13 13 5 -6 -10 -4 -12 4 -7 7 5 10 15 7 22 -5 13 -2
12 16 -1 13 -8 35 -15 50 -15 18 0 28 -5 28 -14 0 -19 20 -25 48 -15 17 7 22
5 23 -9 0 -9 3 -12 5 -5 4 9 13 9 30 2 23 -8 25 -7 19 11 -6 19 10 30 17 11 3
-10 50 31 117 102 l34 36 -94 47 c-113 56 -340 178 -390 210 l-36 23 12 43
c16 61 26 79 36 72 5 -3 9 -2 8 3 -4 21 3 35 32 64 18 18 47 57 65 88 38 63
34 69 -37 70 -20 1 -42 8 -49 16 -10 12 -8 16 11 24 13 4 42 12 64 15 46 8 73
22 62 32 -4 4 -42 0 -84 -9 -42 -9 -78 -15 -81 -13 -2 2 4 18 13 36 25 48 13
59 -22 21 -28 -29 -34 -32 -60 -24 -18 6 -38 27 -58 60 -16 28 -42 57 -57 66
-25 15 -27 19 -16 42 13 29 19 30 59 10 28 -15 49 -13 49 4 0 5 -14 14 -30 21
-17 7 -33 16 -36 21 -2 4 25 68 62 141 37 73 82 168 100 210 l33 78 -39 20
c-22 11 -40 16 -40 10 0 -21 -31 -9 -40 15 -5 14 -11 25 -14 25 -11 0 -99
-152 -196 -340 -58 -113 -113 -215 -121 -228 -12 -20 -12 -24 1 -32 12 -7 12
-12 -4 -29 -17 -19 -17 -20 6 -34 12 -8 36 -21 51 -29 l28 -14 -80 -96 c-44
-53 -89 -99 -100 -103 -20 -6 -60 11 -148 62 l-41 24 67 112 c81 134 145 273
134 290 -4 7 -8 25 -9 41 -1 16 -6 31 -11 35 -5 3 -10 40 -11 81 0 41 -8 95
-17 119 -8 24 -14 45 -13 47 2 1 18 6 37 11 46 12 62 37 36 58 -18 13 -127 50
-150 50 -5 0 -13 4 -16 8 -3 4 -13 -11 -22 -35z m132 -19 c73 -33 22 -52 -101
-38 -35 4 -37 29 -3 29 14 0 28 7 31 15 8 20 20 19 73 -6z m-879 -4 c-14 -7
-27 -11 -30 -9 -6 7 22 24 40 23 9 0 5 -6 -10 -14z m-62 -20 c-10 -8 -68 -13
-68 -5 0 5 12 10 28 12 25 3 48 0 40 -7z m-63 -55 c-3 -5 -16 -15 -28 -21 -21
-10 -21 -9 2 10 25 23 36 27 26 11z m1376 -229 c-21 -51 -106 -209 -121 -225
-6 -5 -12 -7 -15 -4 -11 11 133 278 150 278 2 0 -4 -22 -14 -49z m-1321 -33
c0 -11 -12 -10 -30 2 -12 7 -10 9 8 7 12 0 22 -5 22 -9z m364 -20 c-10 -56
-11 -73 0 -86 7 -11 11 -11 17 0 7 10 9 10 10 -2 0 -8 5 -4 9 10 8 24 8 23 9
-7 1 -18 -1 -33 -3 -33 -2 0 -12 -3 -22 -7 -13 -5 -15 -3 -9 7 5 8 3 11 -6 8
-8 -3 -13 -11 -11 -17 1 -7 -2 -10 -8 -6 -6 4 -9 14 -8 22 4 22 -13 25 -36 8
-16 -12 -17 -17 -6 -30 7 -8 10 -18 6 -22 -3 -3 -6 -1 -6 5 0 7 -3 12 -7 12
-5 0 -8 -29 -7 -66 0 -36 -3 -67 -8 -70 -4 -3 -8 7 -8 21 0 22 -3 25 -21 20
-15 -5 -19 -4 -15 4 4 6 0 11 -8 11 -9 0 -16 7 -16 15 0 20 -8 19 -55 -4 -30
-14 -42 -28 -51 -57 -11 -35 -12 -36 -13 -11 -1 30 21 91 37 101 6 3 22 7 36
8 17 2 26 8 26 20 0 10 6 18 14 18 7 0 19 7 26 15 21 25 30 17 14 -12 -18 -36
-18 -79 1 -87 8 -3 15 0 16 7 0 7 2 21 3 32 17 134 18 139 47 167 16 16 33 27
39 23 5 -3 10 -1 10 4 0 6 2 11 5 11 3 0 3 -15 -1 -32z m-354 -2 c0 -3 -4 -8
-10 -11 -5 -3 -10 -1 -10 4 0 6 5 11 10 11 6 0 10 -2 10 -4z m167 -142 c-3 -3
-12 -4 -19 -1 -8 3 -5 6 6 6 11 1 17 -2 13 -5z m150 -42 c-10 -10 -14 -22 -10
-25 3 -4 1 -7 -5 -7 -17 0 -15 17 6 38 22 24 30 18 9 -6z m-127 -22 c0 -5 -5
-10 -11 -10 -5 0 -7 5 -4 10 3 6 8 10 11 10 2 0 4 -4 4 -10z m-123 -67 c-3
-10 -5 -4 -5 12 0 17 2 24 5 18 2 -7 2 -21 0 -30z m1203 7 c0 -5 -2 -10 -4
-10 -3 0 -8 5 -11 10 -3 6 -1 10 4 10 6 0 11 -4 11 -10z m45 -20 c3 -5 1 -10
-4 -10 -6 0 -11 5 -11 10 0 6 2 10 4 10 3 0 8 -4 11 -10z m259 -183 c11 -8 15
-19 10 -30 -9 -24 -17 -21 -37 13 -20 33 -7 42 27 17z m-799 -47 c6 -27 10
-30 41 -27 18 3 31 0 28 -4 -3 -5 2 -9 11 -9 8 0 24 -5 34 -12 19 -12 19 -12
0 -40 -11 -15 -19 -33 -18 -40 4 -33 -1 -35 -46 -25 -37 9 -48 8 -63 -6 -23
-21 -36 -21 -67 -1 -27 18 -44 89 -26 107 6 6 11 19 11 29 0 10 5 18 10 18 6
0 19 9 30 20 28 28 47 25 55 -10z m375 -5 c15 -16 19 -25 10 -25 -15 0 -50 29
-50 42 0 15 16 8 40 -17z m25 -75 c3 -5 -4 -7 -16 -5 -27 5 -80 55 -73 67 5 8
77 -42 89 -62z m16 27 c-13 -13 -26 -3 -16 12 3 6 11 8 17 5 6 -4 6 -10 -1
-17z m-536 3 c-3 -5 -12 -10 -18 -10 -7 0 -6 4 3 10 19 12 23 12 15 0z m13
-242 c16 -16 15 -25 -2 -31 -10 -4 -12 0 -9 14 7 24 -12 25 -26 2 -9 -16 -10
-16 -11 -1 0 14 11 24 31 27 3 1 10 -4 17 -11z m-64 -14 c10 -25 -1 -29 -14
-5 -6 12 -7 21 -1 21 5 0 12 -7 15 -16z m-37 -26 c-3 -8 -6 -5 -6 6 -1 11 2
17 5 13 3 -3 4 -12 1 -19z m116 -25 c-7 -2 -21 -2 -30 0 -10 3 -4 5 12 5 17 0
24 -2 18 -5z m-23 -43 c0 -5 -2 -10 -4 -10 -3 0 -8 5 -11 10 -3 6 -1 10 4 10
6 0 11 -4 11 -10z m-20 -14 c0 -3 -4 -8 -10 -11 -5 -3 -10 -1 -10 4 0 6 5 11
10 11 6 0 10 -2 10 -4z m171 -79 c0 -5 -17 -28 -39 -51 -56 -61 -75 -44 -21
18 37 42 61 55 60 33z m64 -131 c-35 -43 -55 -57 -55 -37 0 18 75 100 84 91 5
-5 -7 -27 -29 -54z m425 -1 c0 -8 -2 -15 -4 -15 -2 0 -6 7 -10 15 -3 8 -1 15
4 15 6 0 10 -7 10 -15z m137 -17 c-3 -8 -6 -5 -6 6 -1 11 2 17 5 13 3 -3 4
-12 1 -19z m-253 -6 c3 -5 -1 -9 -9 -9 -8 0 -15 4 -15 9 0 4 4 8 9 8 6 0 12
-4 15 -8z m591 -22 c3 -5 1 -10 -4 -10 -6 0 -11 5 -11 10 0 6 2 10 4 10 3 0 8
-4 11 -10z m-445 -71 c0 -5 -7 -9 -15 -9 -9 0 -12 6 -9 15 6 15 24 11 24 -6z
m-55 -159 c-3 -5 -1 -10 4 -10 6 0 11 -4 11 -10 0 -5 -9 -10 -20 -10 -18 0
-19 3 -10 20 6 11 13 20 16 20 3 0 2 -4 -1 -10z"/>
<path d="M1036 971 c-4 -7 -5 -15 -2 -18 9 -9 19 4 14 18 -4 11 -6 11 -12 0z"/>
<path d="M320 2000 c-9 -6 -10 -10 -3 -10 6 0 15 5 18 10 8 12 4 12 -15 0z"/>
<path d="M2210 1959 c0 -5 5 -7 10 -4 6 3 10 8 10 11 0 2 -4 4 -10 4 -5 0 -10
-5 -10 -11z"/>
<path d="M2414 1865 c0 -34 9 -45 21 -25 3 5 0 21 -8 35 l-13 26 0 -36z"/>
<path d="M2346 1855 c-3 -8 -1 -15 4 -15 13 0 22 18 11 24 -5 3 -11 -1 -15 -9z"/>
<path d="M1811 1723 c-10 -26 -10 -27 4 -9 8 11 15 23 15 28 0 15 -7 8 -19
-19z"/>
<path d="M1850 1719 c-7 -11 -10 -23 -7 -25 2 -2 9 7 15 21 14 30 7 33 -8 4z"/>
<path d="M1871 1684 c0 -11 3 -14 6 -6 3 7 2 16 -1 19 -3 4 -6 -2 -5 -13z"/>
<path d="M2395 1670 c-3 -6 1 -7 9 -4 18 7 21 14 7 14 -6 0 -13 -4 -16 -10z"/>
<path d="M1946 1643 c-6 -14 -5 -15 5 -6 7 7 10 15 7 18 -3 3 -9 -2 -12 -12z"/>
<path d="M1995 1629 c-4 -6 -5 -12 -2 -15 2 -3 7 2 10 11 7 17 1 20 -8 4z"/>
<path d="M2016 1613 c-6 -14 -5 -15 5 -6 7 7 10 15 7 18 -3 3 -9 -2 -12 -12z"/>
<path d="M2045 1609 c-4 -6 -5 -12 -2 -15 2 -3 7 2 10 11 7 17 1 20 -8 4z"/>
<path d="M2206 1474 c-9 -24 -7 -28 9 -14 17 14 20 30 6 30 -5 0 -12 -7 -15
-16z"/>
<path d="M2315 1440 c-14 -27 -21 -59 -10 -49 8 9 35 79 30 79 -2 0 -11 -13
-20 -30z"/>
<path d="M2461 1454 c0 -11 3 -14 6 -6 3 7 2 16 -1 19 -3 4 -6 -2 -5 -13z"/>
<path d="M2441 1433 c0 -6 -4 -20 -7 -30 -5 -14 -4 -15 5 -7 7 7 11 20 8 30
-3 11 -5 14 -6 7z"/>
<path d="M1835 1379 c-8 -12 13 -39 30 -39 7 0 37 -11 66 -24 49 -23 69 -25
69 -7 0 4 -21 18 -47 30 -89 44 -112 51 -118 40z"/>
<path d="M2395 1330 c-3 -5 -3 -15 0 -20 4 -6 2 -16 -4 -23 -7 -9 -5 -13 8
-13 15 0 17 5 11 28 -6 18 -4 29 3 32 9 3 9 5 0 5 -6 1 -15 -3 -18 -9z"/>
<path d="M2092 1310 c-6 -11 -12 -29 -12 -41 0 -17 3 -19 14 -10 11 9 15 9 20
-1 3 -7 4 5 1 27 -3 24 -1 35 4 26 5 -8 11 -9 15 -3 4 8 -13 22 -27 22 -1 0
-8 -9 -15 -20z"/>
<path d="M2259 1303 c-13 -16 -12 -17 4 -4 9 7 17 15 17 17 0 8 -8 3 -21 -13z"/>
<path d="M2531 1303 c-5 -10 -11 -22 -13 -28 -1 -5 -9 -9 -15 -9 -7 1 -11 -2
-8 -6 3 -5 1 -11 -5 -15 -7 -4 -7 -12 0 -24 5 -10 6 -22 2 -26 -4 -5 -1 -5 6
-1 7 4 10 17 6 32 -5 20 -3 24 17 24 12 0 20 3 16 6 -3 4 0 19 9 35 8 16 10
29 5 29 -6 0 -15 -8 -20 -17z"/>
<path d="M2170 1280 c0 -5 4 -10 9 -10 24 0 17 -32 -12 -64 -36 -38 -101 -156
-91 -165 4 -3 9 0 11 7 3 6 10 12 16 12 7 0 27 32 46 71 34 70 74 119 98 119
6 0 14 4 17 9 4 5 -2 7 -13 4 -10 -3 -33 3 -50 11 -17 9 -31 12 -31 6z"/>
<path d="M2160 1229 c0 -5 5 -7 10 -4 6 3 10 8 10 11 0 2 -4 4 -10 4 -5 0 -10
-5 -10 -11z"/>
<path d="M2460 1220 c0 -5 5 -10 11 -10 5 0 7 5 4 10 -3 6 -8 10 -11 10 -2 0
-4 -4 -4 -10z"/>
<path d="M2075 1197 c-4 -10 -5 -21 -1 -24 10 -10 18 4 13 24 -4 17 -4 17 -12
0z"/>
<path d="M2441 1143 c6 -35 -2 -45 -28 -39 l-28 6 28 -15 c30 -17 37 -31 10
-21 -17 7 -17 6 -1 -10 22 -22 25 -19 33 39 5 32 4 47 -4 47 -6 0 -10 -3 -10
-7z"/>
<path d="M2021 1068 c0 -16 -5 -28 -11 -28 -23 0 -7 -32 22 -44 28 -12 34 -12
44 2 14 20 0 34 -24 24 -12 -4 -14 0 -10 16 4 12 2 20 -2 17 -5 -3 -11 5 -13
17 -4 20 -4 19 -6 -4z"/>
<path d="M2363 976 c4 -9 1 -16 -5 -16 -7 0 -3 -6 8 -14 14 -11 21 -11 26 -3
11 18 10 21 -13 36 -19 11 -21 11 -16 -3z"/>
<path d="M568 323 c17 -2 47 -2 65 0 17 2 3 4 -33 4 -36 0 -50 -2 -32 -4z"/>
<path d="M1928 263 c12 -2 32 -2 45 0 12 2 2 4 -23 4 -25 0 -35 -2 -22 -4z"/>
</g>
</svg>
